<?xml version="1.0" standalone="no"?>
<!DOCTYPE svg PUBLIC "-//W3C//DTD SVG 20010904//EN"
 "http://www.w3.org/TR/2001/REC-SVG-20010904/DTD/svg10.dtd">
<svg version="1.0" xmlns="http://www.w3.org/2000/svg"
 width="1388.000000pt" height="876.000000pt" viewBox="0 0 1388.000000 876.000000"
 preserveAspectRatio="xMidYMid meet">

<g transform="translate(0.000000,876.000000) scale(0.100000,-0.100000)"
fill="#000000" stroke="none">
<path d="M2158 2963 c6 -2 18 -2 25 0 6 3 1 5 -13 5 -14 0 -19 -2 -12 -5z"/>
<path d="M2090 2940 c0 -5 7 -7 15 -4 8 4 15 8 15 10 0 2 -7 4 -15 4 -8 0 -15
-4 -15 -10z"/>
<path d="M2053 2933 c-13 -2 -23 -8 -23 -13 0 -10 38 -1 46 11 3 5 4 8 2 8 -2
-1 -13 -4 -25 -6z"/>
<path d="M2190 2920 c0 -5 -7 -10 -15 -10 -8 0 -15 -5 -15 -11 0 -8 -5 -7 -16
2 -13 10 -17 10 -25 -2 -8 -12 -10 -12 -19 1 -6 10 -10 11 -10 3 0 -7 -5 -13
-11 -13 -5 0 -7 6 -3 13 5 9 4 9 -6 0 -7 -6 -20 -9 -29 -6 -12 3 -11 1 3 -11
19 -16 19 -16 -6 -16 -15 0 -29 -4 -32 -9 -3 -4 -18 -6 -32 -3 -22 4 -26 2
-21 -10 4 -12 -2 -17 -24 -20 -32 -5 -50 8 -25 18 9 3 16 10 16 14 0 5 -11 3
-25 -3 -15 -7 -25 -20 -25 -33 0 -14 -8 -24 -21 -27 -13 -4 -18 -10 -13 -18 4
-8 3 -10 -5 -5 -9 6 -9 11 0 22 28 33 -3 22 -57 -22 -186 -148 -325 -349 -393
-569 -34 -113 -52 -243 -31 -230 6 3 10 1 10 -4 0 -6 -4 -11 -10 -11 -11 0
-15 -202 -4 -213 3 -3 7 -27 9 -54 5 -96 82 -283 174 -428 51 -80 205 -240
221 -230 6 4 9 1 8 -6 -2 -7 13 -19 32 -25 19 -7 28 -13 20 -14 -9 0 -3 -8 15
-20 17 -11 35 -18 42 -15 7 2 10 -2 6 -12 -4 -11 -2 -14 8 -11 8 3 20 -1 27
-9 8 -7 18 -11 23 -7 5 3 8 0 7 -6 -2 -6 14 -17 35 -24 20 -8 43 -18 50 -24 6
-5 27 -13 46 -17 26 -5 32 -4 26 5 -5 9 -4 11 4 6 6 -4 9 -11 6 -16 -6 -10 13
-18 108 -41 95 -23 124 -24 124 -4 0 17 -14 20 -19 4 -2 -7 -10 -4 -18 7 -12
14 -12 16 -1 9 9 -5 12 -4 7 3 -7 12 -36 5 -36 -8 0 -5 -8 -7 -17 -5 -10 2
-25 4 -33 4 -13 1 -13 2 0 11 9 6 17 5 21 -2 4 -7 9 -7 13 1 4 6 4 11 -1 12
-11 1 -45 7 -65 11 -10 2 -20 7 -24 10 -5 6 40 3 79 -5 7 -1 12 5 12 13 0 8
-7 16 -15 16 -8 1 -24 2 -35 3 -17 1 -18 3 -5 11 8 5 25 10 38 10 12 0 22 5
22 11 0 6 -7 9 -15 5 -8 -3 -15 -2 -16 2 0 4 -3 18 -5 31 -5 29 38 73 62 64 8
-3 14 0 14 5 0 6 -13 9 -30 7 -16 -2 -30 0 -30 5 0 6 4 10 10 10 5 0 14 9 20
19 7 15 6 23 -5 34 -16 17 -10 27 17 27 10 0 18 6 18 14 0 10 -10 14 -30 14
-36 -1 -48 8 -33 23 6 6 9 18 6 25 -3 8 0 14 7 14 8 0 11 -9 8 -25 -4 -21 -3
-23 13 -14 11 5 19 15 19 22 0 8 4 7 10 -3 5 -8 12 -11 15 -8 12 12 -7 30 -26
25 -10 -3 -22 -1 -25 5 -3 5 -12 7 -19 4 -8 -3 -16 0 -19 7 -4 7 -4 2 -2 -11
3 -16 -1 -22 -15 -22 -20 0 -26 15 -9 25 16 10 3 23 -48 49 -26 13 -58 33 -71
45 -13 12 -30 21 -38 21 -11 0 -18 19 -14 42 0 5 -3 7 -8 5 -10 -2 -111 102
-111 115 0 11 -42 72 -52 76 -12 5 -9 30 3 34 7 2 7 12 -2 31 -9 21 -15 24
-22 15 -6 -9 -7 -7 -3 5 3 11 -1 46 -10 80 -23 90 -21 246 6 325 39 116 99
210 193 299 64 60 188 143 214 143 7 0 13 5 13 11 0 5 3 8 8 5 4 -2 37 2 72
11 43 10 94 13 153 10 48 -2 89 -1 92 2 3 6 -16 11 -55 13 -8 1 -17 4 -20 9
-3 4 -25 8 -50 10 -25 2 -51 9 -59 17 -11 11 -15 10 -26 -5 -7 -10 -11 -21 -9
-25 3 -5 -2 -8 -10 -8 -9 0 -16 7 -16 16 0 8 4 13 9 9 15 -9 21 9 12 41 -4 16
-14 29 -22 30 -40 3 -42 4 -30 18 9 11 6 18 -14 34 -14 11 -25 23 -25 27 0 4
7 1 17 -6 15 -13 16 -10 11 28 -5 36 -3 42 16 48 11 4 24 7 29 6 4 -1 7 4 7 9
0 6 -9 10 -20 10 -13 0 -20 7 -20 20 0 16 -7 20 -31 20 -38 0 -63 22 -46 39 7
7 8 12 2 11 -22 -5 -29 1 -15 10 13 8 12 10 -2 10 -10 0 -18 -4 -18 -10z m-40
-70 c0 -5 -8 -10 -17 -10 -15 0 -16 2 -3 10 19 12 20 12 20 0z m165 -287 c-2
-10 -4 -20 -4 -22 -1 -2 -8 2 -16 9 -13 11 -13 15 -3 21 20 13 27 11 23 -8z
m-65 -27 c0 -3 -4 -8 -10 -11 -5 -3 -10 -1 -10 4 0 6 5 11 10 11 6 0 10 -2 10
-4z m-182 -95 c-13 -17 -27 -30 -32 -30 -6 -1 3 13 19 29 37 38 43 39 13 1z
m-711 -648 c-2 -16 -4 -5 -4 22 0 28 2 40 4 28 2 -13 2 -35 0 -50z m440 -20
c-3 -10 -5 -4 -5 12 0 17 2 24 5 18 2 -7 2 -21 0 -30z m343 -532 c0 -10 -6
-21 -14 -24 -16 -6 -17 24 -1 35 14 11 15 10 15 -11z m30 -31 c0 -5 -7 -10
-16 -10 -8 0 -12 5 -9 10 3 6 10 10 16 10 5 0 9 -4 9 -10z m40 -268 c0 -1 -11
-15 -25 -30 -20 -21 -25 -23 -25 -9 0 11 -8 17 -22 17 -23 1 -23 1 2 15 21 12
70 17 70 7z m-86 -61 c4 -5 -1 -8 -9 -7 -21 3 -31 16 -12 16 9 0 18 -4 21 -9z"/>
<path d="M2238 2923 c6 -2 18 -2 25 0 6 3 1 5 -13 5 -14 0 -19 -2 -12 -5z"/>
<path d="M1973 2896 c-13 -6 -23 -14 -23 -18 0 -8 29 0 46 13 6 5 14 6 17 2 4
-3 7 -1 7 5 0 14 -17 14 -47 -2z"/>
<path d="M2335 2840 c3 -5 10 -10 16 -10 5 0 9 5 9 10 0 6 -7 10 -16 10 -8 0
-12 -4 -9 -10z"/>
<path d="M2307 2713 c-4 -3 -7 -11 -7 -17 0 -6 5 -5 12 2 6 6 9 14 7 17 -3 3
-9 2 -12 -2z"/>
<path d="M1975 1450 c3 -5 11 -10 16 -10 6 0 7 5 4 10 -3 6 -11 10 -16 10 -6
0 -7 -4 -4 -10z"/>
<path d="M2020 1412 c0 -12 19 -26 26 -19 2 2 -2 10 -11 17 -9 8 -15 8 -15 2z"/>
<path d="M2090 1346 c0 -2 7 -7 16 -10 8 -3 12 -2 9 4 -6 10 -25 14 -25 6z"/>
<path d="M2180 1290 c0 -5 9 -10 21 -10 11 0 17 5 14 10 -3 6 -13 10 -21 10
-8 0 -14 -4 -14 -10z"/>
<path d="M2289 1258 c7 -10 25 -18 40 -18 23 1 24 2 8 11 -10 6 -21 8 -24 5
-4 -3 -13 0 -22 7 -14 11 -14 10 -2 -5z"/>
<path d="M2565 1250 c-18 -8 -17 -9 8 -9 16 -1 26 3 22 9 -3 6 -7 10 -8 9 -1
0 -11 -4 -22 -9z"/>
<path d="M2450 1230 c-22 -7 -21 -8 13 -9 23 -1 36 3 32 9 -7 11 -10 11 -45 0z"/>
<path d="M3334 1218 l-19 -23 23 19 c21 18 27 26 19 26 -2 0 -12 -10 -23 -22z"/>
<path d="M3244 1124 c-80 -84 -67 -83 16 1 35 36 60 64 55 64 -6 -1 -37 -30
-71 -65z"/>
<path d="M3152 1035 c-7 -8 -9 -15 -4 -15 5 0 15 7 22 15 16 19 -1 19 -18 0z"/>
<path d="M2410 780 c0 -5 14 -10 30 -10 17 0 30 5 30 10 0 6 -13 10 -30 10
-16 0 -30 -4 -30 -10z"/>
</g>
</svg>
